# xmcd CD database file
#
# Track frame offsets:
#	150
#	8716
#	28583
#	46563
#	64013
#	87526
#	106755
#	133174
#	149229
#	177515
#	207254
#	240180
#	251120
#	270067
#
# Disc length: 3853 seconds
#
# Revision: 1
# Processed by: cddbd v1.5.2PL0 Copyright (c) Steve Scherf et al.
# Submitted via: CDex 1.51
#
DISCID=bb0f0b0e
DTITLE=胡琳 - Bianca Live [CD1]
DYEAR=2011
DGENRE=Jazz
TTITLE0=Overture
TTITLE1=東風
TTITLE2=暗裡著迷
TTITLE3=Fly Me To The Moon
TTITLE4=They Can't Take That Away From Me
TTITLE5=Night And Day
TTITLE6=他的女人
TTITLE7=味道
TTITLE8=Oh! 夜
TTITLE9=那有一天不想你
TTITLE10=花田錯  - 春風吹
TTITLE11=Bianca Wu monolog
TTITLE12=手心 ( 胡琳 - 林一峰 )
TTITLE13=Autumn Leaves ( 林一峰 )
EXTD=YEAR: 2011
EXTT0=
EXTT1=
EXTT2=
EXTT3=
EXTT4=
EXTT5=
EXTT6=
EXTT7=
EXTT8=
EXTT9=
EXTT10=
EXTT11=
EXTT12=
EXTT13=
PLAYORDER=
